# xmcd
#
# Track frame offsets:
#	150
#	19165
#	36585
#	57925
#	70155
#	85562
#	98819
#	121183
#	139195
#	156450
#	168442
#	191338
#	206872
#
# Disc length: 2910 seconds
#
# Revision: 1
# Processed by: cddbd v1.5.1PL2 Copyright (c) Steve Scherf et al.
# Submitted via: audiograbber 1.83.01
#
DISCID=b40b5c0d
DTITLE=Pete York's New York - Into The Furnace
DYEAR=1980
DGENRE=
TTITLE0=This Time
TTITLE1=Ways And Means
TTITLE2=Schtick
TTITLE3=Now I Know
TTITLE4=Gimme Some Lovin'
TTITLE5=Into The Furnace
TTITLE6=Blue Mountain Roll
TTITLE7=New Tomorrow
TTITLE8=Water Fall
TTITLE9=The Reason Why
TTITLE10=Dreamland
TTITLE11=Carnival Is Coming
TTITLE12=Give Me Be-Bop
EXTD=
EXTT0=
EXTT1=
EXTT2=
EXTT3=
EXTT4=
EXTT5=
EXTT6=
EXTT7=
EXTT8=
EXTT9=
EXTT10=
EXTT11=
EXTT12=
PLAYORDER=
